<svg width="50px" height="50px" viewBox="0 0 1.5 1.5" fill="none" xmlns="http://www.w3.org/2000/svg"><path d="M0.438 0.25a0.125 0.125 0 0 1 0.125 -0.125h0.375a0.125 0.125 0 0 1 0.125 0.125v0.125h0.25a0.063 0.063 0 1 1 0 0.125h-0.067l-0.054 0.759A0.125 0.125 0 0 1 1.067 1.375H0.433a0.125 0.125 0 0 1 -0.125 -0.116L0.254 0.5H0.188a0.063 0.063 0 0 1 0 -0.125h0.25zm0.125 0.125h0.375V0.25H0.563zM0.38 0.5l0.054 0.75H1.067l0.054 -0.75zM0.625 0.625a0.063 0.063 0 0 1 0.063 0.063v0.375a0.063 0.063 0 1 1 -0.125 0v-0.375a0.063 0.063 0 0 1 0.063 -0.063m0.25 0a0.063 0.063 0 0 1 0.063 0.063v0.375a0.063 0.063 0 1 1 -0.125 0v-0.375a0.063 0.063 0 0 1 0.063 -0.063" fill="#0D0D0D"/></svg>