<svg fill="#000000" width="50px" height="50px" viewBox="0 0 1.5 1.5" xmlns="http://www.w3.org/2000/svg"><path d="m1.354 0.641 -0.563 -0.5a0.063 0.063 0 0 0 -0.083 0l-0.563 0.5a0.063 0.063 0 0 0 -0.017 0.069A0.063 0.063 0 0 0 0.188 0.75h0.063v0.563a0.063 0.063 0 0 0 0.063 0.063h0.875a0.063 0.063 0 0 0 0.063 -0.063v-0.563h0.063a0.063 0.063 0 0 0 0.058 -0.04 0.063 0.063 0 0 0 -0.017 -0.069M0.813 1.25h-0.125v-0.188a0.063 0.063 0 0 1 0.125 0Zm0.313 0h-0.188v-0.188a0.188 0.188 0 0 0 -0.375 0v0.188H0.375v-0.5h0.75ZM0.352 0.625 0.75 0.271 1.148 0.625Z"/></svg>