<svg width="50px" height="50px" viewBox="0 0 1.5 1.5" fill="none" xmlns="http://www.w3.org/2000/svg"><path d="M0.24 0.25h0.281L0.611 0.476l-0.145 0.097A0.063 0.063 0 0 0 0.438 0.625c0 0.006 0 0 0 0v0.001a0.125 0.125 0 0 0 0 0.008q0.001 0.008 0.002 0.021c0.002 0.017 0.007 0.04 0.016 0.068 0.018 0.055 0.054 0.126 0.124 0.196s0.141 0.106 0.196 0.124c0.027 0.009 0.051 0.014 0.068 0.016a0.25 0.25 0 0 0 0.029 0.003l0.001 0h0.001s0.007 0 0 0a0.063 0.063 0 0 0 0.056 -0.035l0.042 -0.084 0.277 0.046v0.27c-0.132 0.019 -0.488 0.038 -0.768 -0.242S0.22 0.382 0.24 0.25m0.328 0.405 0.113 -0.075a0.125 0.125 0 0 0 0.047 -0.15L0.636 0.204A0.125 0.125 0 0 0 0.52 0.125H0.236c-0.057 0 -0.11 0.039 -0.12 0.101 -0.021 0.14 -0.05 0.554 0.277 0.881s0.741 0.298 0.881 0.277c0.062 -0.009 0.101 -0.063 0.101 -0.12v-0.273a0.125 0.125 0 0 0 -0.104 -0.123l-0.277 -0.046a0.125 0.125 0 0 0 -0.132 0.067l-0.022 0.043a0.313 0.313 0 0 1 -0.023 -0.007c-0.039 -0.013 -0.093 -0.039 -0.147 -0.094s-0.081 -0.109 -0.094 -0.147a0.313 0.313 0 0 1 -0.008 -0.028z" fill="#0D0D0D"/></svg>